<?xml version="1.0" ?><!DOCTYPE svg  PUBLIC '-//W3C//DTD SVG 1.1//EN'  'http://www.w3.org/Graphics/SVG/1.1/DTD/svg11.dtd'><svg width="100px" height="100px" fill="#4D7BB9" viewBox="0 0 100 100" style="enable-background:new 0 0 100 100;" version="1.1" xml:space="preserve" xmlns="http://www.w3.org/2000/svg" xmlns:xlink="http://www.w3.org/1999/xlink"><g id="_x31_"/><g id="_x32_"/><g id="_x33_"/><g id="_x34_"/><g id="_x35_"/><g id="_x36_"/><g id="_x37_"/><g id="_x38__x27_"/><g id="_x39_"/><g id="_x31_0"/><g id="_x31_1"/><g id="_x31_2"/><g id="_x31_3"/><g id="_x31_4"/><g id="_x31_5"/><g id="_x31_6"/><g id="_x31_7"/><g id="_x31_8"/><g id="_x31_9"/><g id="_x32_0"/><g id="_x32_1"/><g id="_x32_2"/><g id="_x32_3"><path d="M31.1,83.3c-8.7,0-15.9-7.1-15.9-15.9c0-1.7,0.3-3.5,0.8-5.1c2.2-6.4,8.2-10.7,15-10.7c6.8,0,12.8,4.3,15,10.8   c0.6,1.6,0.8,3.4,0.8,5.1C46.9,76.2,39.8,83.3,31.1,83.3z M31.1,54.6c-5.5,0-10.4,3.5-12.2,8.7c-0.5,1.3-0.7,2.7-0.7,4.1   c0,7.1,5.8,12.9,12.9,12.9c7.1,0,12.9-5.8,12.9-12.9c0-1.4-0.2-2.8-0.7-4.1C41.5,58.1,36.6,54.6,31.1,54.6z M31.1,77.5   c-5.5,0-10-4.5-10-10c0-1.1,0.2-2.2,0.5-3.2c1.4-4,5.2-6.8,9.5-6.8c4.3,0,8.1,2.7,9.5,6.8c0.4,1,0.5,2.1,0.5,3.2   C41,73,36.6,77.5,31.1,77.5z M31.1,60.5c-3,0-5.7,1.9-6.6,4.7c-0.2,0.7-0.4,1.5-0.4,2.3c0,3.9,3.1,7,7,7s7-3.1,7-7   c0-0.8-0.1-1.5-0.4-2.2C36.7,62.4,34.1,60.5,31.1,60.5z M44.6,64.4c-0.6,0-1.2-0.4-1.4-1c-1.8-5.2-6.7-8.7-12.2-8.7   s-10.4,3.5-12.2,8.7c-0.2,0.7-1,1.1-1.7,1c-0.7-0.2-1.3-0.8-1.2-1.6l3-33.3c0.1-0.8,0.7-1.4,1.5-1.4h21.1c0.8,0,1.4,0.6,1.5,1.4   l3,33.3c0.1,0.8-0.4,1.4-1.2,1.6C44.8,64.3,44.7,64.4,44.6,64.4z M21.9,31l-2.3,25.5c2.9-3.1,7.1-4.9,11.5-4.9s8.6,1.9,11.5,4.9   L40.2,31H21.9z M38.6,31H24.2c-0.5,0-0.9-0.2-1.2-0.6c-0.3-0.4-0.4-0.8-0.3-1.3l1.8-7.7c0.7-2.8,3.2-4.8,6.1-4.8h1.5   c2.9,0,5.4,2,6.1,4.8l1.8,7.7c0.1,0.4,0,0.9-0.3,1.3C39.5,30.8,39.1,31,38.6,31z M26.1,28h10.7l-1.4-5.9c-0.4-1.5-1.7-2.5-3.2-2.5   h-1.5c-1.5,0-2.8,1-3.2,2.5L26.1,28z M28.3,46.2v-9.1c0-0.8-0.7-1.5-1.5-1.5s-1.5,0.7-1.5,1.5v9.1c0,0.8,0.7,1.5,1.5,1.5   S28.3,47,28.3,46.2z M68.9,83.3c-8.7,0-15.9-7.1-15.9-15.9c0-1.7,0.3-3.5,0.8-5.1c2.2-6.4,8.2-10.7,15-10.7s12.8,4.3,15,10.8   c0.6,1.6,0.8,3.4,0.8,5.1C84.8,76.2,77.7,83.3,68.9,83.3z M68.9,54.6c-5.5,0-10.4,3.5-12.2,8.7c-0.5,1.3-0.7,2.7-0.7,4.1   c0,7.1,5.8,12.9,12.9,12.9c7.1,0,12.9-5.8,12.9-12.9c0-1.4-0.2-2.8-0.7-4.1C79.3,58.1,74.5,54.6,68.9,54.6z M68.9,77.5   c-5.5,0-10-4.5-10-10c0-1.1,0.2-2.2,0.5-3.2c1.4-4,5.2-6.8,9.5-6.8c4.3,0,8.1,2.7,9.5,6.8c0.4,1,0.5,2.1,0.5,3.2   C78.9,73,74.5,77.5,68.9,77.5z M68.9,60.5c-3,0-5.7,1.9-6.6,4.7C62.1,66,62,66.7,62,67.5c0,3.9,3.1,7,7,7s7-3.1,7-7   c0-0.8-0.1-1.5-0.4-2.2C74.6,62.4,71.9,60.5,68.9,60.5z M82.5,64.4c-0.6,0-1.2-0.4-1.4-1c-1.8-5.2-6.7-8.7-12.2-8.7   c-5.5,0-10.4,3.5-12.2,8.7c-0.2,0.7-1,1.1-1.7,1c-0.7-0.2-1.3-0.8-1.2-1.6l3-33.3c0.1-0.8,0.7-1.4,1.5-1.4h21.1   c0.8,0,1.4,0.6,1.5,1.4l3,33.3c0.1,0.8-0.4,1.4-1.2,1.6C82.7,64.3,82.6,64.4,82.5,64.4z M68.9,51.6c4.5,0,8.6,1.9,11.5,4.9L78.1,31   H59.8l-2.3,25.5C60.4,53.5,64.5,51.6,68.9,51.6z M75.8,31H61.4c-0.5,0-0.9-0.2-1.2-0.6c-0.3-0.4-0.4-0.8-0.3-1.3l1.8-7.7   c0.7-2.8,3.2-4.8,6.1-4.8h1.5c2.9,0,5.4,2,6.1,4.8l1.8,7.7c0.1,0.4,0,0.9-0.3,1.3C76.7,30.8,76.3,31,75.8,31z M63.3,28h10.7   l-1.4-5.9c-0.4-1.5-1.7-2.5-3.2-2.5h-1.5c-1.5,0-2.8,1-3.2,2.5L63.3,28z M74.7,46.2v-9.1c0-0.8-0.7-1.5-1.5-1.5s-1.5,0.7-1.5,1.5   v9.1c0,0.8,0.7,1.5,1.5,1.5S74.7,47,74.7,46.2z M56.7,48.8H43.3c-0.8,0-1.4-0.6-1.5-1.4l-1-9.9c0-0.4,0.1-0.8,0.4-1.2   c0.3-0.3,0.7-0.5,1.1-0.5h15.2c0.4,0,0.8,0.2,1.1,0.5s0.4,0.7,0.4,1.2l-1,9.9C58.1,48.2,57.4,48.8,56.7,48.8z M44.7,45.8h10.6   l0.7-6.9H44L44.7,45.8z M55.9,57.3H44.1c-0.8,0-1.4-0.6-1.5-1.4l-0.8-8.4c0-0.4,0.1-0.8,0.4-1.2c0.3-0.3,0.7-0.5,1.1-0.5h13.4   c0.4,0,0.8,0.2,1.1,0.5c0.3,0.3,0.4,0.7,0.4,1.2l-0.8,8.4C57.3,56.7,56.6,57.3,55.9,57.3z M45.5,54.3h9l0.5-5.4H44.9L45.5,54.3z"/></g><g id="_x32_4"/><g id="_x32_5"/></svg>